<svg xmlns="http://www.w3.org/2000/svg" viewBox="0 0 180 180" width="180" height="180">
  <defs>
    <radialGradient id="bg" cx="50%" cy="35%" r="65%">
      <stop offset="0%" stop-color="#FFE8C5"/>
      <stop offset="100%" stop-color="#FFD6A5"/>
    </radialGradient>
  </defs>
  <rect width="180" height="180" rx="40" fill="url(#bg)"/>
  <g transform="translate(19.890 100.380)" fill="#2A1A2E">
    <path d="M10.26-28.44L10.26-28.44L10.26-1.64L7.14-0.30Q5.64 0.20 5.03 0.35Q4.42 0.50 3.90 0.50L3.90 0.50Q3.28 0.50 2.90 0.16Q2.52-0.18 2.52-0.84L2.52-0.84L2.52-24.28Q2.52-24.88 2.36-25.13Q2.20-25.38 1.86-25.48L1.86-25.48L1.26-25.60Q0.86-25.72 0.68-25.96Q0.50-26.20 0.50-26.56L0.50-26.56Q0.50-27 0.74-27.25Q0.98-27.50 1.64-27.76L1.64-27.76L5.96-29.40Q6.96-29.78 7.53-29.93Q8.10-30.08 8.54-30.08L8.54-30.08Q9.40-30.08 9.83-29.62Q10.26-29.16 10.26-28.44ZM8.88-12.70L8.88-12.70L7.62-13.98Q9.28-16.68 11.39-18.21Q13.50-19.74 16.18-19.74L16.18-19.74Q18.54-19.74 20.42-18.52Q22.30-17.30 23.38-15.16Q24.46-13.02 24.46-10.22L24.46-10.22Q24.46-6.98 23.14-4.56Q21.82-2.14 19.54-0.80Q17.26 0.54 14.40 0.54L14.40 0.54Q12 0.54 10.20-0.50Q8.40-1.54 7.12-3.64L7.12-3.64L9.08-5Q10-3.62 10.91-3.01Q11.82-2.40 12.90-2.40L12.90-2.40Q13.94-2.40 14.75-3.11Q15.56-3.82 16-5.37Q16.44-6.92 16.44-9.42L16.44-9.42Q16.44-11.74 15.99-13.17Q15.54-14.60 14.75-15.27Q13.96-15.94 12.94-15.94L12.94-15.94Q11.76-15.94 10.76-15.17Q9.76-14.40 8.88-12.70ZM37.94-19.72L37.94-19.72Q41.26-19.72 43.74-18.44Q46.22-17.16 47.60-14.86Q48.98-12.56 48.98-9.52L48.98-9.52Q48.98-6.70 47.54-4.41Q46.10-2.12 43.56-0.79Q41.02 0.54 37.66 0.54L37.66 0.54Q34.34 0.54 31.86-0.76Q29.38-2.06 28-4.36Q26.62-6.66 26.62-9.66L26.62-9.66Q26.62-12.54 28.06-14.82Q29.50-17.10 32.05-18.41Q34.60-19.72 37.94-19.72ZM39.40-2.10L39.40-2.10Q40.30-2.30 40.81-3.22Q41.32-4.14 41.34-5.87Q41.36-7.60 40.82-10.18L40.82-10.18Q40.32-12.70 39.62-14.30Q38.92-15.90 38.05-16.59Q37.18-17.28 36.22-17.08L36.22-17.08Q35.30-16.90 34.80-15.97Q34.30-15.04 34.28-13.33Q34.26-11.62 34.78-9L34.78-9Q35.28-6.50 35.99-4.90Q36.70-3.30 37.56-2.61Q38.42-1.92 39.40-2.10ZM62.52-19.72L62.52-19.72Q65.84-19.72 68.32-18.44Q70.80-17.16 72.18-14.86Q73.56-12.56 73.56-9.52L73.56-9.52Q73.56-6.70 72.12-4.41Q70.68-2.12 68.14-0.79Q65.60 0.54 62.24 0.54L62.24 0.54Q58.92 0.54 56.44-0.76Q53.96-2.06 52.58-4.36Q51.20-6.66 51.20-9.66L51.20-9.66Q51.20-12.54 52.64-14.82Q54.08-17.10 56.63-18.41Q59.18-19.72 62.52-19.72ZM63.98-2.10L63.98-2.10Q64.88-2.30 65.39-3.22Q65.90-4.14 65.92-5.87Q65.94-7.60 65.40-10.18L65.40-10.18Q64.90-12.70 64.20-14.30Q63.50-15.90 62.63-16.59Q61.76-17.28 60.80-17.08L60.80-17.08Q59.88-16.90 59.38-15.97Q58.88-15.04 58.86-13.33Q58.84-11.62 59.36-9L59.36-9Q59.86-6.50 60.57-4.90Q61.28-3.30 62.14-2.61Q63-1.92 63.98-2.10ZM85.18-18.06L85.18-18.06L85.18-16.16L85.54-15.48L85.54 5.42Q85.54 6.18 85.67 6.49Q85.80 6.80 86.12 6.94L86.12 6.94L86.72 7.14Q87.16 7.32 87.35 7.59Q87.54 7.86 87.54 8.24L87.54 8.24Q87.54 8.74 87.21 9.03Q86.88 9.32 86.16 9.32L86.16 9.32L77.26 9.32Q76.52 9.32 76.19 9.03Q75.86 8.74 75.86 8.24L75.86 8.24Q75.86 7.86 76.06 7.59Q76.26 7.32 76.68 7.14L76.68 7.14L77.22 6.94Q77.54 6.80 77.67 6.49Q77.80 6.18 77.80 5.42L77.80 5.42L77.80-13.90Q77.80-14.50 77.63-14.76Q77.46-15.02 77.14-15.10L77.14-15.10L76.54-15.22Q76.12-15.34 75.95-15.58Q75.78-15.82 75.78-16.18L75.78-16.18Q75.78-16.62 76.02-16.85Q76.26-17.08 76.92-17.36L76.92-17.36L80.88-19.02Q81.78-19.40 82.37-19.55Q82.96-19.70 83.44-19.70L83.44-19.70Q84.32-19.70 84.75-19.24Q85.18-18.78 85.18-18.06ZM84.14-12.70L84.14-12.70L82.88-13.98Q84.56-16.68 86.66-18.21Q88.76-19.74 91.44-19.74L91.44-19.74Q93.82-19.74 95.69-18.52Q97.56-17.30 98.64-15.16Q99.72-13.02 99.72-10.22L99.72-10.22Q99.72-6.98 98.40-4.56Q97.08-2.14 94.81-0.80Q92.54 0.54 89.68 0.54L89.68 0.54Q87.28 0.54 85.48-0.50Q83.68-1.54 82.40-3.64L82.40-3.64L84.34-5Q85.26-3.62 86.18-3.01Q87.10-2.40 88.18-2.40L88.18-2.40Q89.22-2.40 90.02-3.11Q90.82-3.82 91.27-5.37Q91.72-6.92 91.72-9.42L91.72-9.42Q91.72-11.74 91.26-13.17Q90.80-14.60 90.02-15.27Q89.24-15.94 88.22-15.94L88.22-15.94Q87.04-15.94 86.03-15.17Q85.02-14.40 84.14-12.70Z"/>
  </g>
  <g transform="translate(129.610 75.000) scale(0.46875)">
<path d="M 32 26 Q 22 26 17 33 Q 11 42 16 51 Q 22 58 32 58 Q 42 58 48 51 Q 53 42 47 33 Q 42 26 32 26 Z" fill="#FF9A8B"/>
<ellipse cx="13" cy="26" rx="5.5" ry="6.5" fill="#FF9A8B"/>
<ellipse cx="24" cy="13" rx="6" ry="7" fill="#FF9A8B"/>
<ellipse cx="40" cy="13" rx="6" ry="7" fill="#FF9A8B"/>
<ellipse cx="51" cy="26" rx="5.5" ry="6.5" fill="#FF9A8B"/>
  </g>
</svg>
